<svg id="seabot" xmlns="http://www.w3.org/2000/svg" viewBox="0 0 132.6 104.33">
  <title>logo</title>
  <g>
    <polygon points="0.58 72.15 0.58 74.33 8.56 75.05 8.56 71.42 0.58 72.15" style="fill: #a91e1e;stroke: #363636;stroke-miterlimit: 10"/>
    <polygon points="129.45 64.48 132.02 81.28 105.02 82.51 101 75.13 99.76 75.13 8.56 75.18 8.56 71.3 99.92 71.25 100.7 71.25 129.45 64.48" style="fill: #c61718;stroke: #363636;stroke-miterlimit: 10"/>
  </g>
  <g>
    <polygon points="132.02 44.62 132.02 42.43 124.04 41.71 124.05 45.35 132.02 44.62" style="fill: #a91e1e;stroke: #363636;stroke-miterlimit: 10"/>
    <polygon points="3.15 52.28 0.58 35.49 27.59 34.26 31.61 41.64 32.84 41.64 124.04 41.59 124.05 45.47 32.69 45.52 31.9 45.52 3.15 52.28" style="fill: #c61718;stroke: #363636;stroke-miterlimit: 10"/>
  </g>
  <g>
    <path d="M88.78,396s34,6.32,61.21-21.7c0,0,.83,22.19-22.12,44.39Z" transform="translate(-58.66 -325.52)" style="fill: #c61718; stroke: #363636;stroke-miterlimit: 10"/>
    <g>
      <path d="M102.89,393.49s17.16-23.27,9.85-67.41c0,0,34.76,2.94,36.27,45.95C149,372,125.75,392.38,102.89,393.49Z" transform="translate(-58.66 -325.52)" style="fill: #fff"/>
      <path d="M102.89,393.49s17.16-23.27,9.85-67.41c0,0,34.76,2.94,36.27,45.95C149,372,125.75,392.38,102.89,393.49Z" transform="translate(-58.66 -325.52)" style="fill: none;stroke: #363636;stroke-miterlimit: 10"/>
    </g>
  </g>

  <path d="M102.79,429.86a147.33,147.33,0,0,1,17.74-1.32c5.77,0,11.65.26,15.45,1.32H102.79Z" transform="translate(-58.66 -325.52)" style="fill: #fff"/>
  <path d="M93.68,420.37A147.33,147.33,0,0,1,111.42,419c5.77,0,11.65.26,15.45,1.32H93.68Z" transform="translate(-58.66 -325.52)" style="fill: #fff"/>
  <path d="M119.39,424.54c2.49-.76,7.49-1.21,12.72-1,6.61,0.23,13.57.87,16.28,1h-29Z" transform="translate(-58.66 -325.52)" style="fill: #fff"/>
  
</svg>
